<svg xmlns="http://www.w3.org/2000/svg" version="1.1" viewBox="-5.0 -10.0 110.0 135.0">
 <path d="m73.168 26.211c-1.7969-0.39063-3.5-0.13281-4.8008 0.71875-3.4766 2.2852-3.0039 7.8164-2.6211 12.262 0.097656 1.1602 0.22656 2.6211 0.19922 3.5703-0.50781-0.44531-1.3008-1.2461-2.4844-2.6914-2.9414-3.582-5.4453-7.6172-7.4375-11.969-0.61719-1.4023-6.1914-13.781-11.566-16.176-0.53516-0.23828-2.1641-0.96875-4.0391-0.45312-0.22656 0.0625-2.2539 0.67578-3.6172 3.0273-2.1523 3.7188 0.71875 9.4648 5.4688 18.984l0.035157 0.070313c-7.8672-10.859-13.648-17.418-17.457-17.77-2.8789-0.26953-4.3711 1.0859-4.5312 1.2422-1.5156 1.457-1.4375 3.5938-1.4102 4.293 0.15234 4.2461 7.2266 14.168 15.805 25.77-2.5977-2.4609-4.8477-4.8203-6.8984-6.9766-4.9453-5.1953-8.5195-8.9453-12.68-9.5039-0.78125-0.10547-3.1562-0.42188-4.6016 1.1914-1.4648 1.6289-0.86719 4.0508-0.66797 4.8477 0.85938 3.4609 5.9961 9.3047 12.25 15.82-4.7812-2.8438-9.2344-4.4141-12.094-2.2969-1.668 1.2344-2.0508 2.9727-2.1094 3.3047-0.77344 4.2656 3.5078 9.4961 14.309 17.488 4.4766 3.3125 6.7812 5.6289 8.8086 7.6719 2.2227 2.2344 4.1406 4.168 8.0391 6.3789 2.8125 1.5977 6.0039 3.4062 10.664 4.6328 3.9805 1.0508 7.6914 1.5742 11.125 1.5742 5.793 0 10.789-1.4922 14.926-4.4766 7.3242-5.2773 9.3047-13.258 10.148-16.664 1.7188-6.918 0.3125-12.793-2.4883-24.523-4.3125-18.047-8.8008-19.023-10.277-19.344zm9.7305 43.117c-0.76172 3.0781-2.5508 10.273-8.9414 14.883-5.793 4.1719-13.676 4.9883-23.43 2.4141-4.2695-1.125-7.2695-2.8281-9.9219-4.332-3.5234-2-5.1328-3.6211-7.3594-5.8594-2.0039-2.0156-4.5-4.5273-9.168-7.9844-9.1875-6.8008-13.594-11.652-13.094-14.422 0.007813-0.035156 0.16016-0.80078 0.89062-1.3438 0.375-0.28125 0.86328-0.40625 1.4375-0.40625 3.8828 0 11.652 5.7422 14.832 8.0938 2.8867 2.1328 3.4883 2.582 4.4102 2.4375 0.41406-0.0625 0.82812-0.31641 1.0703-0.65234 0.98047-1.3555 0.48438-1.8594-5.5469-8.0234-5.3398-5.457-14.281-14.594-15.188-18.242-0.35938-1.4492-0.14844-1.8828-0.042969-2 0.078125-0.089844 0.45312-0.375 1.8672-0.18359 3.0664 0.41016 6.3203 3.8281 10.828 8.5625 2.875 3.0156 6.1289 6.4336 10.207 9.9961 4.7188 4.1211 6.0859 4.3125 7.0742 3.2031 1.0664-1.207 0.94922-1.375-5.375-9.918-5.3438-7.2266-15.293-20.676-15.426-24.344-0.011719-0.35547-0.050782-1.4375 0.41797-1.8945 0.027344-0.023438 0.67578-0.54688 2.1094-0.41406 4.1328 0.38281 16.172 17.727 20.707 24.254 4.1523 5.9766 4.2344 6.0938 5.6094 5.3438 0.66016-0.35938 0.97266-1.1367 0.73828-1.8555l-1.0195-3.1133c-1.9531-4.2734-3.8555-8.0781-5.5312-11.438-3.8359-7.6875-6.8672-13.762-5.5586-16.023 0.71875-1.2461 1.7227-1.5742 1.7383-1.5781 0.79297-0.21484 1.5977 0.14062 1.9414 0.29297 3.2227 1.4336 7.8281 9.7031 9.9844 14.602 2.1094 4.6172 4.7578 8.8789 7.8711 12.676 3.0039 3.6562 4.6953 4.793 6.2461 4.2031 2.1289-0.8125 1.8945-3.5469 1.5703-7.3359-0.29297-3.4258-0.69531-8.1211 1.2227-9.3828 0.59375-0.38672 1.4531-0.48438 2.4219-0.27734 0.94922 0.20703 4.3281 2.0469 7.9062 17.035 2.6797 11.219 4.0234 16.848 2.4883 23.027z"/>
 <path d="m71.242 8.6992c-0.84766-0.039063-1.5977 0.60938-1.6484 1.4727-0.046875 0.85938 0.60938 1.5977 1.4727 1.6484 12.375 0.71094 19.289 7.4766 21.141 20.684 0.10938 0.78125 0.77734 1.3477 1.5469 1.3477 0.074219 0 0.14453-0.003906 0.21875-0.015624 0.85547-0.12109 1.4492-0.91016 1.332-1.7656-2.0586-14.707-10.152-22.57-24.055-23.367z"/>
 <path d="m29.066 92.203c-13.207-1.8477-19.973-8.7656-20.684-21.141-0.050781-0.86328-0.79297-1.5078-1.6484-1.4727-0.85938 0.046875-1.5195 0.78906-1.4727 1.6484 0.79688 13.902 8.6602 21.996 23.371 24.059 0.074219 0.011719 0.14844 0.015625 0.21875 0.015625 0.76563 0 1.4375-0.56641 1.5469-1.3477 0.12109-0.85547-0.47656-1.6445-1.332-1.7656z"/>
<text x="0.0" y="117.5" font-size="5.0" font-weight="bold" font-family="Arbeit Regular, Helvetica, Arial-Unicode, Arial, Sans-serif" fill="#000000">Created by Color Combo</text><text x="0.0" y="122.5" font-size="5.0" font-weight="bold" font-family="Arbeit Regular, Helvetica, Arial-Unicode, Arial, Sans-serif" fill="#000000">from Noun Project</text></svg>