<svg xmlns="http://www.w3.org/2000/svg" version="1.1" viewBox="-5.0 -10.0 110.0 135.0">
 <path d="m48 6.1992c23.066 0 41.801 18.734 41.801 41.801s-18.734 41.801-41.801 41.801-41.801-18.734-41.801-41.801 18.734-41.801 41.801-41.801zm-1.0156 3.6172c-19.699 0.51562-35.707 15.977-37.09 35.457 5.5-8.5234 11.832-13.648 18.602-16.391 7.5586-3.0664 15.707-3.168 23.957-1.5898-0.19141-5.7148-2-11.543-5.4648-17.477zm-36.957 42.391c0.49219 4.5156 1.7734 8.8008 3.707 12.699 7.8906-13.066 18.715-19.207 33.301-18.75 3.082-4.9844 4.8672-10.059 5.3164-15.227-7.75-1.5586-15.41-1.6016-22.508 1.2734-7.4102 3-14.16 9.1914-19.816 19.984zm5.7656 16.34c6.793 10.617 18.684 17.66 32.207 17.66 6.3672 0 12.367-1.5586 17.648-4.3164-27.484-1-36.426-20.543-38.543-26.609-4.375 3.1016-8.1172 7.5156-11.309 13.258zm55.559 9.6836c3.082-2.3828 5.793-5.2344 8.0234-8.4414-14.941-0.53516-25.691-7.3398-32.492-20.023-6.3008-0.19141-11.816 1-16.641 3.5742 1.3398 4.2344 9.918 26.633 41.109 24.891zm10.227-12.008c2.9492-5.418 4.6172-11.625 4.6172-18.215 0-13.242-6.75-24.918-16.992-31.766 6.8984 18.566 6.8672 34.84-2.6328 47.316 4.3906 1.793 9.3906 2.6914 15.008 2.668zm-17.293-52.773c-4.0352-1.9102-8.457-3.125-13.117-3.5078 7.0078 13.207 6.4922 25.918-1.0898 38.16 3.332 6.1992 7.7148 10.84 13.176 13.875 9.918-12.449 9.0352-29.09 1.1484-48.125-0.050782-0.13281-0.089844-0.25781-0.11719-0.39062z" fill-rule="evenodd"/>
<text x="0.0" y="117.5" font-size="5.0" font-weight="bold" font-family="Arbeit Regular, Helvetica, Arial-Unicode, Arial, Sans-serif" fill="#000000">Created by Ardiansyah</text><text x="0.0" y="122.5" font-size="5.0" font-weight="bold" font-family="Arbeit Regular, Helvetica, Arial-Unicode, Arial, Sans-serif" fill="#000000">from Noun Project</text></svg>